<svg width="20" height="22" viewBox="0 0 20 22" fill="none" xmlns="http://www.w3.org/2000/svg">
<path fill-rule="evenodd" clip-rule="evenodd" d="M18.7381 6.56191L18.1082 5.4381C17.5753 4.48718 16.3944 4.15914 15.4682 4.70476V4.70476C15.0274 4.97178 14.5013 5.04753 14.0061 4.91532C13.5109 4.78311 13.0871 4.4538 12.8283 4C12.6618 3.71156 12.5723 3.38302 12.5689 3.04762V3.04762C12.584 2.50988 12.3866 1.98879 12.0219 1.60305C11.6572 1.21731 11.1562 0.999778 10.633 1H9.36394C8.85134 0.999994 8.35987 1.21001 7.99828 1.58357C7.63668 1.95713 7.43478 2.46345 7.43725 2.99048V2.99048C7.42205 4.07861 6.55973 4.95249 5.50129 4.95238C5.17507 4.9489 4.85553 4.85691 4.57499 4.68571V4.68571C3.64885 4.14009 2.46792 4.46813 1.93504 5.41905L1.25885 6.56191C0.726609 7.51163 1.04132 8.72505 1.96283 9.27619V9.27619C2.56183 9.63175 2.93082 10.2889 2.93082 11C2.93082 11.7111 2.56183 12.3682 1.96283 12.7238V12.7238C1.0425 13.2712 0.727436 14.4817 1.25885 15.4286V15.4286L1.89799 16.5619C2.14767 17.0251 2.56658 17.3669 3.06204 17.5117C3.55749 17.6565 4.08864 17.5923 4.53794 17.3333V17.3333C4.97962 17.0683 5.50596 16.9957 5.99996 17.1317C6.49396 17.2676 6.91469 17.6008 7.16862 18.0571C7.33512 18.3456 7.42459 18.6741 7.42798 19.0095V19.0095C7.42798 20.1088 8.29474 21 9.36394 21H10.633C11.6986 21 12.5638 20.1146 12.5689 19.019V19.019C12.5665 18.4904 12.7696 17.9826 13.1332 17.6088C13.4968 17.2349 13.9907 17.026 14.5049 17.0286C14.8303 17.0375 15.1485 17.1291 15.4312 17.2952V17.2952C16.3549 17.8425 17.5351 17.5189 18.0711 16.5714V16.5714L18.7381 15.4286C18.9962 14.973 19.0671 14.4304 18.9349 13.9209C18.8028 13.4115 18.4786 12.9772 18.0341 12.7143V12.7143C17.5896 12.4514 17.2654 12.0171 17.1332 11.5076C17.0011 10.9982 17.0719 10.4556 17.3301 10C17.498 9.69865 17.741 9.44879 18.0341 9.27619V9.27619C18.9501 8.72535 19.264 7.51902 18.7381 6.57143V6.57143V6.56191Z" stroke="#6E7F98" stroke-width="1.5" stroke-linecap="round" stroke-linejoin="round"/>
<ellipse cx="10.0032" cy="11.0002" rx="2.66773" ry="2.74286" stroke="#6E7F98" stroke-width="1.5" stroke-linecap="round" stroke-linejoin="round"/>
</svg>
