<svg width="22" height="24" viewBox="0 0 22 24" fill="none" xmlns="http://www.w3.org/2000/svg">
<g id="Logo" clip-path="url(#clip0_0_1957)">
<g id="Group">
<path id="Vector" d="M21.8358 12.259C21.8358 11.492 21.775 10.7208 21.6453 9.96625H11.2393V14.3113H17.1983C16.951 15.7127 16.1565 16.9524 14.993 17.7402V20.5595H18.5482C20.6359 18.5943 21.8358 15.692 21.8358 12.259Z" fill="#4285F4"/>
<path id="Vector_2" d="M11.2394 23.2835C14.2149 23.2835 16.7241 22.2843 18.5524 20.5595L14.9972 17.7402C14.0081 18.4284 12.7312 18.8182 11.2434 18.8182C8.36526 18.8182 5.92489 16.8322 5.04928 14.1621H1.38062V17.0685C3.25346 20.8788 7.06806 23.2835 11.2394 23.2835Z" fill="#34A853"/>
<path id="Vector_3" d="M5.04508 14.1621C4.58295 12.7607 4.58295 11.2433 5.04508 9.84189V6.93549H1.38048C-0.18428 10.1238 -0.18428 13.8802 1.38048 17.0685L5.04508 14.1621Z" fill="#FBBC04"/>
<path id="Vector_4" d="M11.2394 5.18174C12.8122 5.15686 14.3324 5.76219 15.4715 6.87334L18.6213 3.65183C16.6268 1.73634 13.9797 0.683229 11.2394 0.716398C7.06806 0.716398 3.25346 3.12113 1.38062 6.93553L5.04522 9.84194C5.91678 7.16771 8.36121 5.18174 11.2394 5.18174Z" fill="#EA4335"/>
</g>
</g>
<defs>
<clipPath id="clip0_0_1957">
<rect width="21.6269" height="22.5672" fill="white" transform="translate(0.20874 0.71637)"/>
</clipPath>
</defs>
</svg>
