<svg width="134" height="33" viewBox="0 0 134 33" fill="none" xmlns="http://www.w3.org/2000/svg">
<g id="Logo">
<g id="tittle">
<path d="M63.8499 6.79403L55.8681 29.1779H49.0082L41.0264 6.79403H46.8605L52.4381 23.6936L58.0478 6.79403H63.8499Z" fill="#3177E0"/>
<path d="M69.8994 9.53622C68.9377 9.53622 68.147 9.25988 67.5273 8.70719C66.9289 8.13324 66.6297 7.43175 66.6297 6.60272C66.6297 5.75243 66.9289 5.05094 67.5273 4.49825C68.147 3.9243 68.9377 3.63733 69.8994 3.63733C70.8397 3.63733 71.609 3.9243 72.2074 4.49825C72.8271 5.05094 73.137 5.75243 73.137 6.60272C73.137 7.43175 72.8271 8.13324 72.2074 8.70719C71.609 9.25988 70.8397 9.53622 69.8994 9.53622ZM72.6241 11.3856V29.1779H67.1426V11.3856H72.6241Z" fill="#3177E0"/>
<path d="M94.4594 19.9948C94.4594 20.505 94.4274 21.0364 94.3633 21.5891H81.9578C82.0432 22.6945 82.3959 23.5448 83.0156 24.14C83.6567 24.7139 84.4367 25.0009 85.3556 25.0009C86.7234 25.0009 87.6743 24.4269 88.2086 23.279H94.0427C93.7435 24.4482 93.1986 25.5004 92.4079 26.4357C91.6385 27.3711 90.6662 28.1044 89.4908 28.6359C88.3154 29.1673 87.0012 29.433 85.548 29.433C83.7956 29.433 82.2356 29.061 80.8679 28.317C79.5002 27.573 78.4317 26.5102 77.6623 25.1284C76.893 23.7467 76.5083 22.1312 76.5083 20.2818C76.5083 18.4324 76.8823 16.8168 77.6303 15.4351C78.3996 14.0534 79.4681 12.9905 80.8358 12.2465C82.2035 11.5025 83.7742 11.1305 85.548 11.1305C87.279 11.1305 88.8176 11.4919 90.164 12.2146C91.5103 12.9374 92.5575 13.9684 93.3054 15.3076C94.0747 16.6468 94.4594 18.2092 94.4594 19.9948ZM88.8497 18.5599C88.8497 17.6246 88.5291 16.8806 87.888 16.3279C87.2469 15.7752 86.4455 15.4989 85.4839 15.4989C84.5649 15.4989 83.7849 15.7646 83.1438 16.296C82.5241 16.8275 82.1394 17.5821 81.9898 18.5599H88.8497Z" fill="#3177E0"/>
<path d="M124.029 11.3856L119.189 29.1779H113.131L110.31 17.6352L107.393 29.1779H101.366L96.4937 11.3856H101.975L104.508 24.1081L107.521 11.3856H113.323L116.368 24.0443L118.868 11.3856H124.029Z" fill="#3177E0"/>
</g>
<g id="Group 70689">
<path id="background" d="M0 8.06178C0 5.69549 0 4.51234 0.386579 3.57906C0.902019 2.33468 1.89068 1.34602 3.13506 0.83058C4.06834 0.444 5.25149 0.444 7.61778 0.444H24.9382C27.3045 0.444 28.4877 0.444 29.4209 0.83058C30.6653 1.34602 31.654 2.33468 32.1694 3.57906C32.556 4.51234 32.556 5.69549 32.556 8.06178V25.3822C32.556 27.7485 32.556 28.9317 32.1694 29.8649C31.654 31.1093 30.6653 32.098 29.4209 32.6134C28.4877 33 27.3045 33 24.9382 33H7.61778C5.25149 33 4.06834 33 3.13506 32.6134C1.89068 32.098 0.902019 31.1093 0.386579 29.8649C0 28.9317 0 27.7485 0 25.3822V8.06178Z" fill="#3177E0"/>
<path id="v" d="M16.29 19.2658L19.2104 9.39691H23.6031L18.8243 23.2332H13.7317L8.95288 9.39691H13.3697L16.29 19.2658Z" fill="white"/>
<path id="tittle_2" d="M130.762 29.5937C129.801 29.5937 129.01 29.3173 128.39 28.7646C127.792 28.1907 127.493 27.4892 127.493 26.6602C127.493 25.8099 127.792 25.0978 128.39 24.5238C129.01 23.9499 129.801 23.6629 130.762 23.6629C131.703 23.6629 132.472 23.9499 133.07 24.5238C133.69 25.0978 134 25.8099 134 26.6602C134 27.4892 133.69 28.1907 133.07 28.7646C132.472 29.3173 131.703 29.5937 130.762 29.5937Z" fill="#061730"/>
</g>
</g>
</svg>
