<svg width="49" height="48" viewBox="0 0 49 48" fill="none" xmlns="http://www.w3.org/2000/svg">
<path fill-rule="evenodd" clip-rule="evenodd" d="M33.8787 6C36.5607 6 39.1407 7.06 41.0387 8.962C42.9387 10.86 44.0007 13.42 44.0007 16.1V31.9C44.0007 37.48 39.4607 42 33.8787 42H14.1207C8.53873 42 4.00073 37.48 4.00073 31.9V16.1C4.00073 10.52 8.51873 6 14.1207 6H33.8787ZM37.0608 19.08L37.2208 18.92C37.6988 18.34 37.6988 17.5 37.1988 16.92C36.9208 16.622 36.5388 16.44 36.1408 16.4C35.7208 16.378 35.3208 16.52 35.0188 16.8L26.0008 24C24.8408 24.962 23.1788 24.962 22.0008 24L13.0008 16.8C12.3788 16.34 11.5188 16.4 11.0008 16.94C10.4608 17.48 10.4008 18.34 10.8588 18.94L11.1208 19.2L20.2208 26.3C21.3408 27.18 22.6988 27.66 24.1208 27.66C25.5388 27.66 26.9208 27.18 28.0388 26.3L37.0608 19.08Z" fill="white"/>
<circle cx="41" cy="8" r="7" fill="#F03939" stroke="#3177E0" stroke-width="1.4"/>
</svg>
