<svg width="23" height="24" viewBox="0 0 23 24" fill="none" xmlns="http://www.w3.org/2000/svg">
<path fill-rule="evenodd" clip-rule="evenodd" d="M16.1368 3.35815C17.3978 3.35815 18.6108 3.85651 19.5031 4.75074C20.3964 5.64308 20.8957 6.84666 20.8957 8.10666V15.535C20.8957 18.1584 18.7612 20.2835 16.1368 20.2835H6.84763C4.22326 20.2835 2.08972 18.1584 2.08972 15.535V8.10666C2.08972 5.48323 4.21386 3.35815 6.84763 3.35815H16.1368ZM17.6329 9.50771L17.7081 9.43248C17.9328 9.1598 17.9328 8.76487 17.6977 8.49218C17.567 8.35208 17.3874 8.26651 17.2003 8.24771C17.0029 8.23736 16.8148 8.30412 16.6728 8.43577L12.433 11.8208C11.8876 12.2731 11.1062 12.2731 10.5524 11.8208L6.32106 8.43577C6.02863 8.2195 5.6243 8.24771 5.38077 8.50159C5.12689 8.75547 5.09868 9.1598 5.314 9.44188L5.43718 9.56412L9.71554 12.9022C10.2421 13.3159 10.8806 13.5416 11.5491 13.5416C12.2158 13.5416 12.8655 13.3159 13.3912 12.9022L17.6329 9.50771Z" fill="#061730"/>
</svg>
