<svg width="18" height="22" viewBox="0 0 18 22" fill="none" xmlns="http://www.w3.org/2000/svg">
<path fill-rule="evenodd" clip-rule="evenodd" d="M8.6078 17.4952L2.48376 20.8762C1.9948 21.1323 1.39242 20.951 1.12286 20.4667C1.04487 20.3166 1.0028 20.1503 1 19.981V5C1 2.14286 2.93739 1 5.72534 1H12.2747C14.9776 1 17 2.06667 17 4.80952V19.981C17 20.2512 16.8935 20.5104 16.7038 20.7015C16.5142 20.8926 16.257 21 15.9888 21C15.8177 20.9973 15.6496 20.9549 15.4973 20.8762L9.3355 17.4952C9.10844 17.3716 8.83486 17.3716 8.6078 17.4952Z" fill="#061730" stroke="#061730" stroke-width="1.5" stroke-linecap="round" stroke-linejoin="round"/>
<path d="M5.20557 7.8092H12.7378" stroke="white" stroke-width="1.5" stroke-linecap="round" stroke-linejoin="round"/>
</svg>
