<svg width="25" height="24" viewBox="0 0 25 24" fill="none" xmlns="http://www.w3.org/2000/svg">
<g id="ic / pass hide">
<g id="Hide">
<path id="Stroke 1" d="M10.1043 14.3668C9.50905 13.7928 9.14673 13.0128 9.14673 12.1378C9.14673 10.3848 10.6084 8.9718 12.4221 8.9718C13.3196 8.9718 14.1457 9.3228 14.7306 9.8968" stroke="#061730" stroke-width="1.5" stroke-linecap="round" stroke-linejoin="round"/>
<path id="Stroke 3" d="M15.6365 12.6989C15.3964 13.9889 14.3446 15.0069 13.0103 15.2409" stroke="#061730" stroke-width="1.5" stroke-linecap="round" stroke-linejoin="round"/>
<path id="Stroke 5" d="M6.88888 17.4723C5.24602 16.2263 3.85472 14.4063 2.84644 12.1373C3.86507 9.85829 5.26569 8.02829 6.9189 6.77229C8.56176 5.51629 10.4572 4.83429 12.422 4.83429C14.3982 4.83429 16.2926 5.52629 17.9458 6.79129" stroke="#061730" stroke-width="1.5" stroke-linecap="round" stroke-linejoin="round"/>
<path id="Stroke 7" d="M20.132 8.99078C20.8443 9.90478 21.4706 10.9598 21.9975 12.1368C19.9612 16.6938 16.3629 19.4388 12.4219 19.4388C11.5285 19.4388 10.6476 19.2988 9.80078 19.0258" stroke="#061730" stroke-width="1.5" stroke-linecap="round" stroke-linejoin="round"/>
<path id="Stroke 9" d="M20.587 4.24957L4.25781 20.0236" stroke="#061730" stroke-width="1.5" stroke-linecap="round" stroke-linejoin="round"/>
</g>
</g>
</svg>
